HIERARCHY
ROOT Hips
{
	OFFSET 0.00000 0.00000 0.00000
	CHANNELS 6 Xposition Yposition Zposition Zrotation Yrotation Xrotation 
	JOINT LHipJoint
	{
		OFFSET 0 0 0
		CHANNELS 3 Zrotation Yrotation Xrotation
		JOINT LeftUpLeg
		{
			OFFSET 1.75344 -1.53157 0.77399
			CHANNELS 3 Zrotation Yrotation Xrotation
			JOINT LeftLeg
			{
				OFFSET 2.25415 -6.19323 0.00000
				CHANNELS 3 Zrotation Yrotation Xrotation
				JOINT LeftFoot
				{
					OFFSET 2.30342 -6.32861 0.00000
					CHANNELS 3 Zrotation Yrotation Xrotation
					JOINT LeftToeBase
					{
						OFFSET 0.10958 -0.30108 1.49206
						CHANNELS 3 Zrotation Yrotation Xrotation
						End Site
						{
							OFFSET 0.00000 -0.00000 0.77783
						}
					}
				}
			}
		}
	}
	JOINT RHipJoint
	{
		OFFSET 0 0 0
		CHANNELS 3 Zrotation Yrotation Xrotation
		JOINT RightUpLeg
		{
			OFFSET -1.81912 -1.53156 0.77399
			CHANNELS 3 Zrotation Yrotation Xrotation
			JOINT RightLeg
			{
				OFFSET -2.22882 -6.12365 0.00000
				CHANNELS 3 Zrotation Yrotation Xrotation
				JOINT RightFoot
				{
					OFFSET -2.21943 -6.09785 0.00000
					CHANNELS 3 Zrotation Yrotation Xrotation
					JOINT RightToeBase
					{
						OFFSET -0.18931 -0.52012 1.59379
						CHANNELS 3 Zrotation Yrotation Xrotation
						End Site
						{
							OFFSET -0.00000 -0.00000 0.84686
						}
					}
				}
			}
		}
	}
	JOINT LowerBack
	{
		OFFSET 0 0 0
		CHANNELS 3 Zrotation Yrotation Xrotation
		JOINT Spine
		{
			OFFSET -0.00200 1.66634 -0.14248
			CHANNELS 3 Zrotation Yrotation Xrotation
			JOINT Spine1
			{
				OFFSET -0.00875 1.64542 0.09514
				CHANNELS 3 Zrotation Yrotation Xrotation
				JOINT Neck
				{
					OFFSET 0 0 0
					CHANNELS 3 Zrotation Yrotation Xrotation
					JOINT Neck1
					{
						OFFSET 0.02257 1.59605 0.00839
						CHANNELS 3 Zrotation Yrotation Xrotation
						JOINT Head
						{
							OFFSET -0.10214 1.57530 -0.23335
							CHANNELS 3 Zrotation Yrotation Xrotation
							End Site
							{
								OFFSET -0.03588 1.60717 -0.08062
							}
						}
					}
				}
				JOINT LeftShoulder
				{
					OFFSET 0 0 0
					CHANNELS 3 Zrotation Yrotation Xrotation
					JOINT LeftArm
					{
						OFFSET 2.54983 1.10186 0.40078
						CHANNELS 3 Zrotation Yrotation Xrotation
						JOINT LeftForeArm
						{
							OFFSET 4.28840 -0.00000 0.00000
							CHANNELS 3 Zrotation Yrotation Xrotation
							JOINT LeftHand
							{
								OFFSET 3.06552 -0.00000 -0.00000
								CHANNELS 3 Zrotation Yrotation Xrotation
								JOINT LeftFingerBase
								{
									OFFSET 0 0 0
									CHANNELS 3 Zrotation Yrotation Xrotation
									JOINT LeftHandIndex1
									{
										OFFSET 0.75304 -0.00000 0.00000
										CHANNELS 3 Zrotation Yrotation Xrotation
										End Site
										{
											OFFSET 0.60712 -0.00000 0.00000
										}
									}
								}
								JOINT LThumb
								{
									OFFSET 0 0 0
									CHANNELS 3 Zrotation Yrotation Xrotation
									End Site
									{
										OFFSET 0.61639 -0.00000 0.61639
									}
								}
							}
						}
					}
				}
				JOINT RightShoulder
				{
					OFFSET 0 0 0
					CHANNELS 3 Zrotation Yrotation Xrotation
					JOINT RightArm
					{
						OFFSET -2.60909 1.35448 0.21802
						CHANNELS 3 Zrotation Yrotation Xrotation
						JOINT RightForeArm
						{
							OFFSET -4.52172 -0.00000 -0.00000
							CHANNELS 3 Zrotation Yrotation Xrotation
							JOINT RightHand
							{
								OFFSET -2.89140 -0.00000 0.00000
								CHANNELS 3 Zrotation Yrotation Xrotation
								JOINT RightFingerBase
								{
									OFFSET 0 0 0
									CHANNELS 3 Zrotation Yrotation Xrotation
									JOINT RightHandIndex1
									{
										OFFSET -0.68054 -0.00000 0.00000
										CHANNELS 3 Zrotation Yrotation Xrotation
										End Site
										{
											OFFSET -0.54867 -0.00000 0.00000
										}
									}
								}
								JOINT RThumb
								{
									OFFSET 0 0 0
									CHANNELS 3 Zrotation Yrotation Xrotation
									End Site
									{
										OFFSET -0.55705 -0.00000 0.55705
									}
								}
							}
						}
					}
				}
			}
		}
	}
}
MOTION
Frames: 12
Frame Time: 0.0625
0.00 0.00 0.00 0 0 0 0 0 0 -21 0 0 0 0 0 0 0 0 0 0 0 0 0 0 21 0 0 0 0 0 0 0 0 0 0 0 0 0 0 0 0 0 0 0 0 0 0 -16 0 0 21 0 0 11 0 0 0 -8 0 0 0 0 0 0 0 0 0 0 0 0 0 0 0 0 0 0 0 0 8 0 0 0 0 0 0 0 0 0 0 0 0 0 0 0 0 0
0.00 0.00 0.00 -179.3150 -1.6058 177.1540 0.0000 0.0000 0.0000 -26.2384 -22.7660 -0.1756 2.6763 10.1516 29.4691 1.5904 9.0099 -28.5656 2.8101 -10.3812 -30.2201 0.0000 0.0000 0.0000 29.5934 17.8326 3.3811 -1.8886 -8.6301 24.6448 0.2999 -25.3685 -33.9121 -0.1257 2.2852 -6.2944 1.6315 1.0946 8.1363 0.0489 1.6046 -4.3178 -1.1150 0.6530 -9.1133 -5.6122 -1.9354 -9.4502 2.5525 -3.3800 22.4287 1.3927 -2.2531 8.6738 -0.0000 -0.0000 0.0000 -87.5973 15.8450 11.4242 24.4890 -35.6771 -7.9900 -0.0000 -0.0000 13.6599 7.9491 -26.3988 -3.5526 -7.1250 0.0000 -0.0000 -13.1762 3.9521 12.5801 -0.0000 -0.0000 0.0000 85.7015 -12.2098 21.7705 -20.1227 30.7898 -5.5940 0.0000 0.0000 15.0616 -18.9271 -50.8618 14.8939 7.1250 -0.0000 -0.0000 54.6221 -77.6859 -43.8195
0.00 0.00 0.00 -180.3620 27.3793 181.2630 0.0000 0.0000 0.0000 -24.7434 -16.0703 -3.7528 3.7022 11.7532 34.8644 1.0267 6.4357 -22.4963 2.1017 -9.0748 -26.0295 0.0000 0.0000 0.0000 25.5211 24.3550 2.3894 -1.8654 -8.5800 24.4900 -0.8112 -8.9223 -22.4884 -1.3167 7.2678 -20.5114 -1.3307 -1.6282 6.6403 0.0346 -2.2601 -4.2606 1.0858 -1.0041 -8.1610 -15.6551 -11.3645 -1.4161 16.0913 -16.2618 13.2966 6.4291 -7.6416 6.9048 -0.0000 -0.0000 0.0000 -85.3690 -3.3655 54.9513 36.7259 -46.0059 -16.0425 -0.0000 -0.0000 6.8200 17.0023 -28.0124 -8.1724 -7.1250 0.0000 -0.0000 -7.8977 1.1340 7.8149 -0.0000 -0.0000 0.0000 78.9768 -14.4542 28.4459 -21.6625 32.5935 -6.4031 0.0000 0.0000 11.8999 -7.1649 -53.7711 5.7902 7.1250 -0.0000 -0.0000 71.6291 -74.1272 -55.3610
0.00 0.00 0.00 -201.3470 75.9724 164.8810 0.0000 0.0000 0.0000 -32.7024 -4.7328 11.5371 0.5726 4.8458 13.4694 -0.9251 17.5616 -12.3259 1.0564 -6.5352 -18.3453 0.0000 0.0000 0.0000 9.6529 31.3382 -17.9029 -1.1009 -6.6670 18.7324 1.8042 -36.7917 -44.6049 -0.4474 -4.2914 11.8979 -2.5063 -1.2899 7.9219 0.3730 -1.9700 -3.0687 2.0826 -0.8285 -7.5845 -12.6715 -7.4236 -4.3199 13.1703 -10.6033 14.9756 5.5222 -4.8859 6.6293 -0.0000 0.0000 0.0000 -85.0979 10.6314 42.6103 20.0627 -30.7178 -5.5633 -0.0000 -0.0000 23.4968 7.7056 -25.5333 -3.3378 -7.1250 0.0000 -0.0000 -13.3023 4.8218 12.4854 -0.0000 0.0000 0.0000 79.6528 -18.2829 14.2099 -17.8398 27.9515 -4.4739 0.0000 0.0000 15.0588 -11.9317 -50.7252 9.2902 7.1250 -0.0000 -0.0000 58.6278 -74.8701 -44.5076
0.00 0.00 0.00 -194.8570 78.1680 171.1700 0.0000 0.0000 0.0000 -24.4305 4.4704 3.9192 2.7617 10.2988 29.9500 -1.0540 18.6281 -1.1249 0.6169 -5.0267 -13.9846 0.0000 0.0000 0.0000 19.7136 25.0067 -10.5977 -0.8416 -5.8517 16.3547 2.8447 -32.9954 -31.8019 -0.0001 0.0569 -0.1564 -0.3530 -1.7643 6.0743 0.7749 -2.3243 -3.5624 1.2891 -1.0959 -7.0888 -11.0402 -6.0937 -6.1535 11.5438 -8.6829 17.5945 4.8852 -3.8685 7.3748 -0.0000 -0.0000 0.0000 -83.1560 11.3219 41.9966 25.4604 -36.6708 -8.5633 -0.0000 -0.0000 17.4154 8.5230 -24.1983 -3.5151 -7.1250 0.0000 -0.0000 -12.7839 6.0437 11.6680 -0.0000 -0.0000 0.0000 79.6862 -18.9925 15.4962 -17.6939 27.7635 -4.4057 0.0000 0.0000 14.8242 -11.6760 -49.3575 8.9118 7.1250 -0.0000 -0.0000 54.3632 -74.1304 -40.1268
0.00 0.00 0.00 -180.9510 79.7906 183.9750 0.0000 0.0000 0.0000 -18.9402 4.0332 -5.4000 6.9473 15.2874 48.6749 -0.4822 15.9353 5.1278 0.1684 -2.6438 -7.2887 0.0000 0.0000 0.0000 26.1762 21.3139 -2.4426 -0.1741 -2.6879 7.4111 4.1371 -34.3993 -24.2180 -0.4475 4.2921 -11.8999 1.5905 -1.3525 7.0684 1.5649 -1.5117 -3.3690 0.9532 -0.7644 -7.5086 -9.7509 -5.2078 -6.9100 10.7323 -7.4664 18.6409 4.5201 -3.2185 7.6172 -0.0000 -0.0000 0.0000 -81.8770 11.9310 42.6005 27.1473 -38.3193 -9.5903 -0.0000 -0.0000 14.0323 8.4416 -23.2166 -3.3482 -7.1250 0.0000 -0.0000 -12.8195 7.0133 11.4562 -0.0000 -0.0000 0.0000 79.4298 -16.9362 17.7529 -19.1518 29.6068 -5.1056 0.0000 0.0000 12.9692 -10.8087 -49.4604 8.2554 7.1250 -0.0000 -0.0000 55.3405 -73.8575 -40.6683
0.00 0.00 0.00 -157.8780 85.1797 205.3090 0.0000 0.0000 0.0000 -16.5587 0.2810 -18.7818 11.1168 17.9918 63.1604 0.1839 2.3304 -9.3074 1.2027 -6.9579 -19.5908 0.0000 0.0000 0.0000 32.2555 19.6653 3.2471 -0.2829 -3.4207 9.4524 2.8182 -30.7844 -26.0245 -1.4392 7.5846 -21.4594 3.9052 0.2659 8.4832 1.6677 0.9494 -2.6251 -0.5809 0.3365 -7.5077 -8.0105 -3.2500 -7.4136 9.4641 -4.7654 20.2526 4.0862 -1.8612 7.8558 0.0000 0.0000 0.0000 -81.8436 16.0890 37.4290 28.3106 -39.4006 -10.3202 -0.0000 -0.0000 12.3557 10.1986 -23.4447 -4.0941 -7.1250 0.0000 -0.0000 -11.7412 6.6103 10.5408 0.0000 0.0000 0.0000 78.3733 -12.1005 24.3900 -23.9084 35.0672 -7.6539 0.0000 0.0000 9.4807 -11.8643 -49.8931 9.1283 7.1250 -0.0000 -0.0000 55.9168 -74.4645 -41.7707
0.00 0.00 0.00 -34.2245 86.4129 328.8630 0.0000 0.0000 0.0000 -18.7627 -11.5952 -29.2505 4.7298 13.0728 39.6417 1.3862 5.3836 -24.7632 1.2472 -7.0807 -19.9546 0.0000 0.0000 0.0000 34.7835 15.0722 11.5079 -0.1936 -2.8339 7.8166 1.3737 -25.8084 -27.0653 -1.5147 7.7721 -22.0240 5.7559 1.9176 9.2059 1.9072 3.4404 -2.4564 -1.7475 1.4765 -7.5637 -3.1188 0.2398 -8.7046 4.9924 0.2384 22.2351 2.2497 0.5321 8.3019 0.0000 0.0000 0.0000 -83.0768 24.9171 32.0577 28.2287 -39.3259 -10.2683 -0.0000 -0.0000 11.3881 6.7515 -24.7752 -2.8401 -7.1250 0.0000 -0.0000 -13.8653 5.6535 12.8220 0.0000 0.0000 0.0000 77.9092 -4.1708 29.2323 -23.8422 34.9970 -7.6159 0.0000 0.0000 8.8518 -13.5351 -48.4963 10.2197 7.1250 -0.0000 -0.0000 50.2156 -74.3739 -36.9367
0.00 0.00 0.00 -40.5955 85.1377 322.4450 0.0000 0.0000 0.0000 -16.4755 -28.3636 -24.7796 1.9127 8.6819 24.8052 2.4696 18.3242 -40.6028 0.3190 3.6307 10.0399 0.0000 0.0000 0.0000 34.6027 5.0428 16.4551 0.0000 -0.0000 0.0000 1.0020 -21.4549 -21.5497 -0.8230 5.7883 -16.1713 7.3138 2.5658 8.4354 2.6088 4.4678 -2.1252 -1.9655 1.9766 -6.6474 -1.8691 1.6880 -9.2524 4.0446 2.2258 21.8272 1.9041 1.4713 8.2061 -0.0000 -0.0000 0.0000 -82.1790 26.5404 31.2401 27.7671 -38.9010 -9.9771 -0.0000 -0.0000 12.1488 4.9915 -24.3291 -2.0607 -7.1250 0.0000 -0.0000 -14.9253 6.2419 13.6987 -0.0000 -0.0000 0.0000 77.6390 -3.4112 31.4936 -23.6061 34.7449 -7.4809 0.0000 0.0000 9.6414 -13.5878 -48.6389 10.2823 7.1250 -0.0000 -0.0000 50.6095 -74.4725 -37.3530
0.00 0.00 0.00 -29.5967 85.6128 332.5490 0.0000 0.0000 0.0000 -26.2533 -21.7836 -14.6832 1.3545 7.3673 20.8082 -0.3048 20.7668 -27.0049 2.5038 9.8449 28.4759 0.0000 0.0000 0.0000 24.7867 -7.4706 1.4384 -3.8988 -12.0246 35.8189 -0.0492 -1.8965 -5.3377 -2.6977 10.1888 -29.5902 6.4692 3.2311 6.7802 2.1599 5.1473 -3.1334 -1.9758 2.3159 -6.7425 1.7995 4.2492 -10.1834 1.2095 5.8331 23.6305 0.7691 3.2191 9.0980 -0.0000 -0.0000 0.0000 -82.5224 25.4797 22.3442 24.2982 -35.4781 -7.8790 -0.0000 -0.0000 14.1627 6.2865 -24.6668 -2.6323 -7.1250 0.0000 -0.0000 -14.1449 5.8019 13.0563 -0.0000 -0.0000 0.0000 79.1693 -7.8805 31.4448 -21.4818 32.3865 -6.3061 0.0000 0.0000 11.8614 -13.5300 -48.0147 10.1411 7.1250 -0.0000 -0.0000 48.7736 -74.0989 -35.5066
0.00 0.00 0.00 -3.8144 87.6209 357.7410 0.0000 0.0000 0.0000 -30.2057 -18.9397 -9.5486 0.8431 5.8569 16.3698 -0.5235 20.2225 -24.2085 1.7899 8.4140 23.9788 0.0000 0.0000 0.0000 19.4660 -5.5863 -7.8216 -8.4799 -16.4612 54.2735 0.0200 2.5151 0.7490 -3.7814 11.8637 -35.2514 3.6379 2.8863 7.6838 1.6266 4.3929 -2.9678 -0.9328 2.0359 -7.2918 2.3673 4.9003 -10.3160 0.9184 6.6199 22.5329 0.6397 3.5800 8.7795 0.0000 0.0000 0.0000 -82.4853 23.6147 23.0561 25.0410 -36.2459 -8.3142 -0.0000 -0.0000 14.7303 3.6002 -23.2783 -1.4244 -7.1250 0.0000 -0.0000 -15.7787 7.3637 14.1894 0.0000 0.0000 0.0000 79.1729 -8.2041 31.5814 -20.7926 31.5854 -5.9409 0.0000 0.0000 11.7747 -13.4830 -48.0080 10.1042 7.1250 -0.0000 -0.0000 48.7969 -74.0779 -35.5059
0.00 0.00 0.00 4.0965 96.6397 365.2120 0.0000 0.0000 0.0000 -33.6817 -22.4333 -1.1534 1.0359 6.4734 18.1643 0.4329 16.8936 -27.5452 1.3262 7.2930 20.5862 0.0000 0.0000 0.0000 16.8604 4.8080 -20.8087 -10.4421 -17.6511 60.9559 -0.6444 -2.4686 -16.2573 -2.4804 9.8021 -28.3384 2.0133 1.8220 8.5276 1.5133 2.7945 -2.5900 0.0457 1.3197 -7.4990 3.4691 6.6384 -9.4197 0.7265 8.8816 21.1714 0.5700 4.7123 8.2374 0.0000 0.0000 0.0000 -80.2247 15.2279 29.4342 28.2113 -39.3100 -10.2573 -0.0000 -0.0000 13.3692 11.6794 -24.6183 -4.9217 -7.1250 0.0000 -0.0000 -10.8705 5.2824 10.0094 0.0000 0.0000 0.0000 79.9801 -9.2403 29.1338 -20.4904 31.2287 -5.7835 0.0000 0.0000 11.5063 -12.8336 -47.9019 9.5943 7.1250 -0.0000 -0.0000 49.0532 -73.7740 -35.4278
